<svg width="24" height="25" viewBox="0 0 24 25" fill="none" xmlns="http://www.w3.org/2000/svg">
<path d="M12.1734 7.872C11.2974 7.872 9.94138 6.876 8.51338 6.912C6.62938 6.936 4.90138 8.004 3.92938 9.696C1.97338 13.092 3.42538 18.108 5.33338 20.868C6.26938 22.212 7.37338 23.724 8.83738 23.676C10.2414 23.616 10.7694 22.764 12.4734 22.764C14.1654 22.764 14.6454 23.676 16.1334 23.64C17.6454 23.616 18.6054 22.272 19.5294 20.916C20.5974 19.356 21.0414 17.844 21.0654 17.76C21.0294 17.748 18.1254 16.632 18.0894 13.272C18.0654 10.464 20.3814 9.12 20.4894 9.06C19.1694 7.128 17.1414 6.912 16.4334 6.864C14.5854 6.72 13.0374 7.872 12.1734 7.872ZM15.2934 5.04C16.0734 4.104 16.5894 2.796 16.4454 1.5C15.3294 1.548 13.9854 2.244 13.1814 3.18C12.4614 4.008 11.8374 5.34 12.0054 6.612C13.2414 6.708 14.5134 5.976 15.2934 5.04Z" fill="black"/>
</svg>
