<svg width="24" height="25" viewBox="0 0 24 25" fill="none" xmlns="http://www.w3.org/2000/svg">
<path d="M21.8725 1.40552H2.13063C1.45442 1.40552 0.90625 1.95369 0.90625 2.62989V22.3718C0.90625 23.048 1.45442 23.5961 2.13063 23.5961H21.8725C22.5487 23.5961 23.0969 23.048 23.0969 22.3718V2.62989C23.0969 1.95369 22.5487 1.40552 21.8725 1.40552Z" fill="#3D5A98"/>
<path d="M16.2159 23.5943V15.0012H19.0997L19.5309 11.6524H16.2159V9.51492C16.2159 8.54555 16.4859 7.88367 17.8753 7.88367H19.6491V4.88367C18.7901 4.79432 17.927 4.75176 17.0634 4.75617C14.5097 4.75617 12.7509 6.31242 12.7509 9.18305V11.6524H9.86719V15.0012H12.7509V23.5943H16.2159Z" fill="white"/>
</svg>
